<?xml version="1.0" encoding="iso-8859-1"?>
<!-- Uploaded to: SVG Repo, www.svgrepo.com, Generator: SVG Repo Mixer Tools -->
<!DOCTYPE svg PUBLIC "-//W3C//DTD SVG 1.1//EN" "http://www.w3.org/Graphics/SVG/1.1/DTD/svg11.dtd">
<svg fill="#000000" version="1.1" id="Capa_1" xmlns="http://www.w3.org/2000/svg" xmlns:xlink="http://www.w3.org/1999/xlink" 
	 width="800px" height="800px" viewBox="0 0 188.176 188.176"
	 xml:space="preserve">
<g>
	<path d="M140.629,130.35c-13.707,7.4-15.025-6.059-15.025-6.059c-11.33-1.33-19.766-13.979-19.766-13.979
		c-15.279,7.908-6.768,30.204-0.165,38.763c8.464,10.971,2.27,28.727,2.27,28.727s-36.298-1.501-52.18-24.956
		c-16.081-23.731-4.732-42.262-4.732-42.262c-2.639-0.779-11.071,4.746-11.071,4.746c4.743-17.383,30.831-32.148,30.831-32.148
		c-2.893-1.073-11.062,1.041-11.062,1.041c21.347-20.543,47.434-12.906,47.434-12.906c0.786-4.478,13.707-12.389,13.707-12.389
		c-1.323,1.321-1.85,8.444-1.85,8.444c1.318-2.379,5.532-4.741,5.532-4.741c-2.376,5.521,0,17.377,0,17.377
		c6.856,6.859,14.493,30.588,14.493,30.588l2.902,4.203C145.642,120.089,144.282,128.382,140.629,130.35z M188.176,115.715
		c0,23.572-6.52,46.021-18.867,64.912l-27.226-17.779c8.866-13.589,13.565-29.891,13.565-47.121
		c0-41.721-27.621-75.646-61.561-75.646c-33.942,0-61.561,33.925-61.561,75.646c0,17.236,4.696,33.532,13.568,47.121l-27.231,17.779
		C6.52,161.737,0,139.288,0,115.715C0,56.07,42.206,7.548,94.088,7.548C145.973,7.548,188.176,56.084,188.176,115.715z
		 M24.24,100.093c0.278-6.129-2.057-11.222-5.222-11.387c-3.165-0.157-5.958,4.672-6.242,10.802
		c-0.284,6.135,2.057,11.225,5.225,11.384C21.173,111.07,23.968,106.229,24.24,100.093z M42.156,48.359
		c-2.5-2.08-7.403,0.166-10.961,5.001C27.648,58.195,26.8,63.807,29.3,65.864c2.5,2.084,7.409-0.162,10.956-5.012
		C43.808,56.035,44.656,50.425,42.156,48.359z M101.423,25.621c0-4.679-3.569-8.467-7.971-8.467c-4.412,0-7.971,3.789-7.971,8.467
		c0,4.667,3.559,8.461,7.971,8.461C97.859,34.082,101.423,30.287,101.423,25.621z M156.979,53.36
		c-3.564-4.835-8.452-7.081-10.965-5.001c-2.5,2.066-1.648,7.676,1.897,12.493c3.547,4.85,8.446,7.096,10.953,5.012
		C161.37,63.807,160.524,58.195,156.979,53.36z M175.396,99.508c-0.272-6.13-3.068-10.965-6.242-10.802
		c-3.162,0.177-5.497,5.258-5.213,11.387c0.271,6.136,3.067,10.964,6.229,10.799C173.34,110.745,175.68,105.643,175.396,99.508z"/>
</g>
</svg>